# xmcd CD database file
#
# Track frame offsets:
#	150
#	19748
#	44166
#	67116
#	90258
#	112815
#
# Disc length: 1764 seconds
#
# Revision: 0
# Processed by: cddbd v1.5.2PL0 Copyright (c) Steve Scherf et al.
# Submitted via: CDex 1.70beta2
#
DISCID=4706e206
DTITLE=Michael Franks - Special
DYEAR=2012
DGENRE=Jazz
TTITLE0=Michael Franks and Laura Fygi - Tell Me All About It
TTITLE1=Bob Mintzer Big Band and Michael Franks - My Foolish Heart
TTITLE2=Michael Franks and Joe Sample - Leading me back to you
TTITLE3=Michael Franks and The Yellow Jackets - The Dream
TTITLE4=Michael Franks - I Bought You A Plastic Star For your aluminum tree
TTITLE5=Michael Franks and Carla Bley - Let It Snow, let it snow, let it snow
EXTD=YEAR: 2012
EXTT0=
EXTT1=
EXTT2=
EXTT3=
EXTT4=
EXTT5=
PLAYORDER=
